<svg width="24" height="24" viewBox="0 0 24 24" fill="none" xmlns="http://www.w3.org/2000/svg">
<path fill-rule="evenodd" clip-rule="evenodd" d="M13.2315 6.2785C13.3526 6.17751 13.4924 6.10136 13.6429 6.05442C13.7934 6.00748 13.9517 5.99066 14.1087 6.00492C14.2658 6.01919 14.4184 6.06426 14.558 6.13755C14.6976 6.21085 14.8214 6.31094 14.9223 6.4321L18.9219 11.2321C19.0273 11.3525 19.1075 11.4928 19.1578 11.6447C19.2082 11.7966 19.2276 11.957 19.215 12.1165C19.2025 12.276 19.1581 12.4314 19.0846 12.5736C19.0111 12.7157 18.9099 12.8417 18.787 12.9441C18.664 13.0465 18.5219 13.1233 18.3688 13.17C18.2158 13.2167 18.0549 13.2323 17.8958 13.2159C17.7366 13.1995 17.5823 13.1514 17.442 13.0745C17.3017 12.9976 17.1782 12.8935 17.0787 12.7681L13.0779 7.9681C12.8743 7.72364 12.7761 7.40834 12.8049 7.0915C12.8337 6.77467 12.9872 6.48224 13.2315 6.2785Z" fill="white"/>
<path fill-rule="evenodd" clip-rule="evenodd" d="M13.2315 17.722C12.9872 17.5183 12.8337 17.2259 12.8049 16.909C12.7761 16.5922 12.8743 16.2769 13.0779 16.0324L17.0787 11.2324C17.1782 11.1071 17.3017 11.0029 17.442 10.926C17.5823 10.8491 17.7366 10.801 17.8958 10.7846C18.0549 10.7682 18.2158 10.7838 18.3688 10.8305C18.5219 10.8772 18.664 10.954 18.787 11.0565C18.9099 11.1589 19.0111 11.2849 19.0846 11.427C19.1581 11.5691 19.2025 11.7245 19.215 11.884C19.2276 12.0435 19.2082 12.204 19.1578 12.3558C19.1075 12.5077 19.0273 12.648 18.9219 12.7684L14.9223 17.5684C14.8214 17.6896 14.6976 17.7897 14.558 17.863C14.4184 17.9363 14.2658 17.9814 14.1087 17.9956C13.9517 18.0099 13.7934 17.9931 13.6429 17.9461C13.4924 17.8992 13.3526 17.823 13.2315 17.722Z" fill="white"/>
<path fill-rule="evenodd" clip-rule="evenodd" d="M16.8008 11.9998C16.8008 12.3181 16.6744 12.6233 16.4493 12.8483C16.2243 13.0734 15.919 13.1998 15.6008 13.1998H6.00078C5.68252 13.1998 5.3773 13.0734 5.15225 12.8483C4.92721 12.6233 4.80078 12.3181 4.80078 11.9998C4.80078 11.6815 4.92721 11.3763 5.15225 11.1513C5.3773 10.9262 5.68252 10.7998 6.00078 10.7998H15.6008C15.919 10.7998 16.2243 10.9262 16.4493 11.1513C16.6744 11.3763 16.8008 11.6815 16.8008 11.9998Z" fill="white"/>
</svg>
