<svg width="22" height="22" viewBox="0 0 22 22" fill="none" xmlns="http://www.w3.org/2000/svg">
<path d="M2.8979 3.85249C2.63429 3.58889 2.63429 3.1615 2.8979 2.8979C3.1615 2.63429 3.58889 2.63429 3.85249 2.8979L10.8002 9.8456L17.7479 2.8979C18.0115 2.63429 18.4389 2.63429 18.7025 2.8979C18.9661 3.1615 18.9661 3.58889 18.7025 3.85249L11.7548 10.8002L18.7025 17.7479C18.9661 18.0115 18.9661 18.4389 18.7025 18.7025C18.4389 18.9661 18.0115 18.9661 17.7479 18.7025L10.8002 11.7548L3.85249 18.7025C3.58889 18.9661 3.1615 18.9661 2.8979 18.7025C2.6343 18.4389 2.6343 18.0115 2.8979 17.7479L9.8456 10.8002L2.8979 3.85249Z" fill="#4C6633"/>
</svg>
