<svg width="282" height="138" viewBox="0 0 282 138" fill="none" xmlns="http://www.w3.org/2000/svg">
<g clip-path="url(#clip0_747_2206)">
<path d="M123.524 75.5454C123.692 75.5216 123.905 75.4934 124.17 75.4566C124.433 75.422 124.709 75.4155 124.996 75.4393C125.258 75.4631 125.491 75.5216 125.696 75.6147C125.898 75.7099 126.013 75.8745 126.036 76.1083C126.084 76.4374 125.939 76.7016 125.605 76.9008C125.269 77.1 124.817 77.2602 124.244 77.3771C123.981 77.4247 123.496 77.5005 122.791 77.6066C122.084 77.7127 121.302 77.8361 120.443 77.9768C119.581 78.1176 118.704 78.2648 117.807 78.4185C116.911 78.5723 116.126 78.7065 115.459 78.8234C114.717 78.9641 114.013 79.0637 113.343 79.1222C112.672 79.1807 112.086 79.1287 111.586 78.9641C111.084 78.7996 110.677 78.4835 110.367 78.0115C110.056 77.5416 109.888 76.8488 109.865 75.9308V67.5928C109.865 67.3936 109.852 67.1879 109.828 66.9757C109.804 66.7874 109.757 66.6228 109.686 66.4821C109.615 66.3413 109.518 66.2482 109.399 66.2006C108.921 66.0599 108.587 65.8369 108.395 65.5316C108.203 65.2263 108.156 64.921 108.253 64.6157C108.395 64.029 108.899 63.6284 109.759 63.4162C110.166 63.2993 110.548 63.2647 110.908 63.3101C111.265 63.3578 111.696 63.4747 112.198 63.6631C112.677 63.6392 113.22 63.6219 113.83 63.6111C114.439 63.6003 115.053 63.57 115.676 63.5223C116.273 63.4985 116.835 63.4574 117.361 63.3989C117.887 63.3404 118.294 63.2517 118.581 63.1348C119.441 62.994 120.231 62.8879 120.947 62.8165C121.664 62.745 122.153 62.7342 122.416 62.7818C123.037 62.8511 123.349 63.2647 123.349 64.016C123.349 64.5334 122.942 64.921 122.13 65.1787C121.987 65.2263 121.759 65.2501 121.449 65.2501C121.139 65.2501 120.647 65.2631 119.979 65.2847C119.285 65.3086 118.359 65.3497 117.2 65.4082C116.04 65.4666 114.551 65.5662 112.735 65.707V75.4371C112.735 75.7186 112.793 75.9546 112.914 76.143C113.009 76.3313 113.183 76.4547 113.433 76.5132C113.685 76.5717 114.049 76.5652 114.528 76.4959C114.791 76.4482 115.178 76.3963 115.693 76.3378C116.206 76.2794 116.788 76.2144 117.432 76.143C118.079 76.0953 118.742 76.0369 119.423 75.9676C120.104 75.8961 120.744 75.8268 121.343 75.7554C121.916 75.7078 122.401 75.6666 122.796 75.632C123.19 75.5973 123.435 75.567 123.53 75.5432L123.524 75.5454ZM132.384 71.1739C132.792 71.1263 133.173 71.0917 133.533 71.0679C133.893 71.044 134.19 71.0094 134.429 70.9618C134.836 70.9141 135.17 70.8622 135.433 70.8037C135.696 70.7452 135.972 70.6565 136.259 70.5396C137.071 70.6803 137.724 70.8102 138.213 70.9271C138.702 71.044 139.043 71.1393 139.234 71.2086C139.642 71.4208 139.713 71.8906 139.45 72.6181C139.187 73.2763 138.719 73.534 138.051 73.3932C137.478 73.2763 136.98 73.2222 136.562 73.2352C136.144 73.2482 135.66 73.2417 135.11 73.2178C134.703 73.2655 134.261 73.3174 133.783 73.3759C133.304 73.4344 132.839 73.4885 132.384 73.534V82.9112C132.384 85.098 132.246 86.8236 131.973 88.0946C131.697 89.3633 131.272 89.9977 130.699 89.9977C130.389 89.9977 130.15 89.8332 129.982 89.5041C129.814 89.175 129.695 88.7874 129.624 88.3414C129.553 87.8954 129.51 87.4429 129.499 86.9838C129.486 86.5248 129.482 86.1676 129.482 85.9078V57.4577C129.482 56.9879 129.6 56.5765 129.839 56.2236C130.079 55.8707 130.436 55.6953 130.915 55.6953C131.393 55.6953 131.757 55.8707 132.009 56.2236C132.259 56.5765 132.386 56.9879 132.386 57.4577V71.1718L132.384 71.1739Z" fill="white"/>
<path d="M151.181 63.6455C151.338 62.7123 151.696 61.8506 152.25 61.0625C152.803 60.2744 153.476 59.5794 154.267 58.9796C155.057 58.4015 155.934 57.9469 156.895 57.6134C157.856 57.28 158.811 57.1133 159.761 57.1133C160.712 57.1133 161.61 57.2627 162.526 57.5636C163.442 57.8646 164.25 58.2911 164.95 58.8476C165.65 59.404 166.187 60.0709 166.56 60.8482C166.932 61.6254 167.051 62.4937 166.915 63.4485C166.801 64.2258 166.553 64.9381 166.17 65.5812C165.784 66.2264 165.31 66.7915 164.745 67.2808C164.181 67.7918 163.541 68.2205 162.83 68.5647C162.119 68.909 161.356 69.171 160.541 69.3485V73.3822L168.475 72.8149C168.859 72.7716 169.141 72.7262 169.322 72.6828C169.503 72.6395 169.729 72.5616 170.001 72.449C170.203 72.4945 170.516 72.527 170.934 72.5486C171.352 72.5703 171.776 72.6157 172.205 72.6828C172.612 72.7716 172.979 72.895 173.306 73.0488C173.634 73.2047 173.797 73.4385 173.797 73.7481C173.797 74.0382 173.707 74.3803 173.526 74.7809C173.459 74.9368 173.317 75.0472 173.101 75.1143C172.886 75.1814 172.655 75.2139 172.405 75.2139C172.156 75.2139 171.901 75.2031 171.643 75.1814C171.382 75.1598 171.151 75.1251 170.947 75.0818C170.518 74.9931 170.083 74.9606 169.641 74.9822C169.199 75.0039 168.732 75.0277 168.234 75.0494C167.51 75.0494 166.81 75.0602 166.131 75.0818C165.452 75.1035 164.696 75.1381 163.86 75.1814C163 75.2269 162.017 75.2875 160.91 75.3655C159.802 75.4434 158.458 75.5387 156.874 75.6491C156.059 75.7162 155.286 75.7768 154.551 75.8331C153.816 75.8894 153.088 75.9392 152.364 75.9825C151.64 76.0497 150.894 76.1103 150.125 76.1666C149.356 76.2229 148.554 76.2727 147.718 76.316C147.199 76.2943 146.729 76.3484 146.311 76.4827C145.893 76.6169 145.525 76.671 145.21 76.6494C145.029 76.6494 144.768 76.5996 144.43 76.5C144.092 76.4004 143.706 76.2618 143.277 76.0843C143.096 76.0172 142.915 75.9132 142.734 75.7682C142.553 75.6231 142.407 75.4629 142.292 75.2854C142.178 75.1295 142.135 74.9584 142.157 74.7679C142.178 74.5795 142.303 74.3847 142.53 74.1855C142.687 74.0512 142.885 73.9798 143.122 73.9689C143.359 73.9581 143.613 73.9646 143.885 73.9863C144.156 74.0317 144.432 74.0815 144.717 74.1357C144.999 74.192 145.253 74.2179 145.479 74.2179C146.315 74.2179 147.162 74.1963 148.022 74.1508C148.88 74.1075 149.795 74.0404 150.769 73.9516C151.741 73.8845 152.797 73.8131 153.939 73.7351C155.081 73.6572 156.374 73.5857 157.822 73.5186V69.5845C156.941 69.5629 156.064 69.4243 155.193 69.1688C154.323 68.9133 153.571 68.5409 152.939 68.0516C152.284 67.5623 151.786 66.9517 151.448 66.2177C151.11 65.4837 151.019 64.6285 151.177 63.652L151.181 63.6455ZM168.137 85.6456C168.68 85.6889 169.012 85.8166 169.137 86.0288C169.259 86.2388 169.3 86.4683 169.255 86.713C169.21 87.0248 169.012 87.2954 168.663 87.5293C168.311 87.7631 167.855 87.88 167.29 87.88C166.904 87.88 166.454 87.8908 165.935 87.9125C165.415 87.9341 164.771 87.9666 164.002 88.0121L154.508 88.5794C153.581 88.601 152.903 88.5469 152.474 88.4126C152.045 88.2784 151.67 88.0576 151.355 87.7458C151.017 87.3907 150.802 86.8732 150.711 86.1955C150.621 85.5178 150.575 84.8899 150.575 84.3118C150.552 83.5562 150.537 82.7898 150.524 82.0125C150.513 81.2352 150.496 80.4687 150.472 79.7131C150.472 79.2692 150.584 78.886 150.81 78.5634C151.037 78.2408 151.375 78.0806 151.827 78.0806C152.28 78.0806 152.614 78.2429 152.827 78.5634C153.043 78.886 153.15 79.2692 153.15 79.7131L153.252 83.6796V84.6301C153.252 84.9311 153.297 85.2017 153.387 85.4464C153.456 85.691 153.59 85.8902 153.795 86.0461C153.997 86.202 154.314 86.2908 154.745 86.3124C156.305 86.267 157.716 86.2128 158.983 86.1457C159.526 86.1241 160.063 86.1003 160.593 86.0786C161.123 86.057 161.617 86.0331 162.067 86.0115C162.519 85.9898 162.899 85.966 163.202 85.9444C163.508 85.9227 163.717 85.8989 163.829 85.8773C164.213 85.8318 164.581 85.7777 164.931 85.7105C165.282 85.6434 165.592 85.5438 165.864 85.4117C166.226 85.4789 166.592 85.5222 166.965 85.5438C167.337 85.5655 167.727 85.6001 168.135 85.6434L168.137 85.6456ZM163.829 63.5806C163.92 62.9137 163.881 62.3075 163.711 61.764C163.541 61.2206 163.276 60.7464 162.914 60.348C162.53 59.9713 162.067 59.6811 161.524 59.4819C160.981 59.2828 160.382 59.1832 159.727 59.1832C159.117 59.1832 158.511 59.2893 157.912 59.4993C157.313 59.7115 156.766 60.0037 156.268 60.3827C155.749 60.7832 155.307 61.2552 154.945 61.7987C154.583 62.3443 154.346 62.9484 154.234 63.6152C154.144 64.1262 154.183 64.6263 154.353 65.1157C154.523 65.605 154.799 66.0272 155.185 66.3823C155.568 66.7612 156.038 67.06 156.592 67.283C157.145 67.506 157.749 67.6164 158.406 67.6164C158.994 67.6164 159.587 67.5168 160.186 67.3155C160.785 67.1163 161.345 66.837 161.864 66.4819C162.362 66.1268 162.791 65.7046 163.153 65.2153C163.515 64.7259 163.741 64.1825 163.832 63.5827L163.829 63.5806Z" fill="white"/>
<path d="M150.318 51.4084H131.933C128.697 51.4084 126.063 48.1023 126.063 44.0383V17.3702C126.063 13.3062 128.697 10 131.933 10H150.318C153.554 10 156.187 13.3062 156.187 17.3702V44.0361C156.187 48.1001 153.554 51.4063 150.318 51.4063V51.4084ZM131.933 11.5394C129.373 11.5394 127.29 14.1549 127.29 17.3702V44.0361C127.29 47.2513 129.373 49.8668 131.933 49.8668H150.318C152.878 49.8668 154.961 47.2513 154.961 44.0361V17.3702C154.961 14.1549 152.878 11.5394 150.318 11.5394H131.933Z" fill="white"/>
<path d="M141.563 25.3115C143.312 26.6474 145.086 27.8945 146.885 29.0572C148.684 30.2198 150.682 30.8239 152.877 30.8651C152.912 30.995 152.929 31.1011 152.929 31.1877V31.3825C152.929 31.4258 152.92 31.5124 152.903 31.6402C152.886 31.7701 152.843 31.8783 152.774 31.9628C152.362 32.5236 151.882 32.9739 151.334 33.3182C150.785 33.6624 150.22 33.8789 149.637 33.9634C149.053 33.749 148.514 33.3831 148.016 32.8657C147.518 32.3482 146.98 31.8978 146.396 31.5103L140.892 26.6668C139.692 28.2171 138.449 29.5833 137.165 30.7676C135.878 31.952 134.534 32.9956 133.127 33.9006C132.922 33.9872 132.715 34.063 132.51 34.1258C132.303 34.1907 132.116 34.2232 131.944 34.2232C131.532 34.2232 131.129 34.0933 130.735 33.8356C130.34 33.578 130.007 33.277 129.733 32.9306C129.664 32.8007 129.578 32.673 129.476 32.543C129.375 32.4131 129.321 32.2637 129.321 32.0905V31.8329L129.629 31.638C131.754 31.5514 133.7 30.8521 135.467 29.54C137.231 28.2279 138.921 26.6235 140.533 24.729C140.602 24.729 140.694 24.7182 140.815 24.6966C140.936 24.6749 141.028 24.6641 141.097 24.6641C141.166 24.6641 141.252 24.6857 141.354 24.729C141.457 24.7723 141.524 24.8806 141.558 25.0516V25.3093L141.563 25.3115ZM135.956 19.6929V21.1132C136.025 21.1565 136.126 21.1782 136.264 21.1782H137.859C138.167 21.1782 138.466 21.2258 138.759 21.3189C139.05 21.412 139.281 21.648 139.453 22.0226V22.7263C139.453 22.7739 139.436 22.8432 139.401 22.9363L139.194 23.2199L136.057 23.2914C136.023 23.3845 135.997 23.5079 135.98 23.6616C135.962 23.8153 135.954 23.9561 135.954 24.0838V24.8589C135.954 25.1599 135.921 25.4392 135.855 25.699C135.788 25.9567 135.602 26.1299 135.294 26.2165C134.635 26.1299 134.307 25.764 134.307 25.1188V23.5036C133.999 23.5036 133.562 23.5685 132.995 23.6963C132.428 23.8262 131.873 23.9777 131.323 24.1488C131.185 24.1055 131.041 24.0622 130.886 24.0189C130.731 23.9756 130.621 23.824 130.552 23.5663C130.552 23.4776 130.543 23.3607 130.526 23.2199C130.509 23.0792 130.5 22.9385 130.5 22.7977C130.5 22.6094 130.517 22.434 130.552 22.2694C130.586 22.1049 130.636 21.975 130.707 21.8819C130.776 21.648 130.888 21.4835 131.041 21.3904C131.196 21.2973 131.34 21.2258 131.478 21.1782H133.663C133.92 21.1782 134.135 21.1565 134.305 21.1132C134.305 20.8123 134.271 20.5005 134.202 20.1757C134.133 19.8531 134.098 19.5413 134.098 19.2382C134.098 19.1949 134.107 19.1083 134.124 18.9806C134.142 18.8507 134.167 18.7662 134.202 18.7229C134.271 18.5086 134.387 18.3245 134.555 18.173C134.723 18.0236 134.898 17.9478 135.081 17.9478C135.264 17.9478 135.43 18.0236 135.583 18.173C135.736 18.3245 135.859 18.5281 135.949 18.7857V19.6907L135.956 19.6929ZM136.727 38.6141C136.727 38.9151 136.667 39.2269 136.546 39.5516C136.426 39.8742 136.281 40.1882 136.109 40.4891C135.766 41.0066 135.406 41.6518 135.029 42.4269C134.652 43.2021 134.189 43.5896 133.642 43.5896C133.607 43.5896 133.547 43.568 133.461 43.5247C133.374 43.4814 133.297 43.4597 133.23 43.4597C132.818 43.2021 132.536 42.7604 132.381 42.1368C132.226 41.5132 132.151 40.92 132.151 40.3614V40.1037L132.254 39.8461C132.424 39.8461 132.588 39.8569 132.743 39.8786C132.898 39.9002 133.043 39.911 133.18 39.911C133.762 39.911 134.329 39.7487 134.878 39.4261C135.426 39.1034 135.924 38.6834 136.37 38.1659H136.421C136.49 38.1659 136.557 38.1876 136.626 38.2309C136.695 38.2742 136.729 38.3391 136.729 38.4236V38.6184L136.727 38.6141ZM141.899 31.1227C141.914 31.3804 141.925 31.6185 141.925 31.8329V33.1255H146.708C146.777 33.2164 146.818 33.3312 146.837 33.4676C146.855 33.604 146.863 33.7187 146.863 33.8097C146.863 33.9461 146.855 34.0716 146.837 34.1864C146.82 34.3011 146.794 34.4029 146.76 34.4938C146.588 34.9052 146.4 35.1672 146.193 35.282C145.986 35.3967 145.764 35.453 145.525 35.453H141.925V37.7134C141.925 38.4019 141.959 39.1446 142.028 39.9414C142.097 40.7381 142.149 41.5024 142.183 42.2342C142.08 42.795 142.019 43.4294 142.004 44.1396C141.987 44.8497 141.728 45.2914 141.229 45.4625H141.179C141.013 45.4625 140.871 45.3975 140.755 45.2698C140.638 45.142 140.546 44.9472 140.481 44.6895C140.414 44.3453 140.365 44.001 140.332 43.6567C140.298 43.3125 140.283 42.9466 140.283 42.559V35.4552H138.74C138.259 35.4552 137.77 35.4985 137.275 35.5851C136.777 35.6717 136.322 35.8016 135.911 35.9726C135.773 35.9293 135.611 35.886 135.421 35.8427C135.232 35.7994 135.105 35.6457 135.036 35.3772L134.984 35.2235C134.984 34.8619 135.01 34.5393 135.062 34.2557C135.113 33.972 135.258 33.7252 135.499 33.5195C135.568 33.3138 135.661 33.1969 135.781 33.1709C135.902 33.145 136.029 33.132 136.167 33.132H140.28V31.5168C140.28 31.2591 140.321 30.9906 140.405 30.7092C140.487 30.4299 140.612 30.2025 140.78 30.0315C140.981 30.0315 141.179 30.0531 141.377 30.0964C141.578 30.1397 141.709 30.2696 141.776 30.484C141.843 30.6572 141.884 30.8716 141.901 31.1292L141.899 31.1227ZM147.4 18.7229C147.417 18.8095 147.426 18.8961 147.426 18.9806C147.426 19.2815 147.391 19.5522 147.322 19.7882C147.253 20.0263 147.219 20.2948 147.219 20.5958C147.389 20.6391 147.561 20.6715 147.734 20.6932C147.904 20.7148 148.076 20.7257 148.249 20.7257H151.13C151.199 20.8513 151.24 20.966 151.259 21.0721C151.276 21.176 151.285 21.2929 151.285 21.4164C151.285 21.5398 151.276 21.6697 151.259 21.7931C151.242 21.9187 151.216 22.0226 151.181 22.107C151.044 22.4838 150.865 22.7349 150.641 22.8605C150.417 22.9861 150.203 23.0489 149.999 23.0489H146.799C146.635 23.0489 146.553 23.2004 146.553 23.5014V23.889C146.48 24.1466 146.415 24.4497 146.361 24.794C146.307 25.1382 146.133 25.3548 145.84 25.4392C145.803 25.4392 145.747 25.4609 145.676 25.5042C145.639 25.5042 145.575 25.4825 145.482 25.4392C145.392 25.3959 145.29 25.3742 145.18 25.3742C145.107 25.2876 145.043 25.1491 144.989 24.9542C144.935 24.7593 144.907 24.5775 144.907 24.4043V23.0489H144.428C144.11 23.0489 143.767 23.0814 143.401 23.1463C143.034 23.2113 142.677 23.287 142.325 23.3715C142.198 23.3282 142.062 23.2979 141.918 23.2741C141.776 23.2524 141.655 23.1117 141.56 22.8497V22.5163C141.56 22.2499 141.595 21.9966 141.664 21.752C141.733 21.5095 141.851 21.2994 142.024 21.1219C142.093 20.9444 142.185 20.8339 142.306 20.7906C142.427 20.7473 142.554 20.7235 142.692 20.7235H145.262C145.433 20.2493 145.493 19.6799 145.443 19.013C145.392 18.3462 145.605 17.9261 146.085 17.7529H146.394C146.598 17.7529 146.797 17.7854 146.984 17.8504C147.171 17.9153 147.301 18.0994 147.37 18.4003C147.37 18.5302 147.378 18.6385 147.396 18.7229H147.4ZM147.477 39.1965C148.128 39.6274 148.831 39.8418 149.587 39.8418H149.947C150.016 39.9284 150.057 40.0258 150.076 40.1319C150.093 40.2401 150.102 40.3571 150.102 40.487V40.7771C150.102 40.8854 150.067 41.0023 149.999 41.1322C149.723 41.8207 149.331 42.3057 148.816 42.585C148.301 42.8665 147.803 43.1111 147.324 43.3276L146.913 43.005C146.536 42.2732 146.193 41.5414 145.885 40.8096C145.577 40.0778 145.269 39.3459 144.958 38.6141C144.924 38.5708 144.907 38.5167 144.907 38.4517V38.2893C144.907 38.1183 144.941 37.9667 145.01 37.8368C145.079 37.7069 145.18 37.6441 145.318 37.6441C145.387 37.6441 145.454 37.6874 145.523 37.774C146.174 38.2915 146.827 38.7657 147.477 39.1944V39.1965Z" fill="white"/>
</g>
<path d="M15.64 131H14.14L10.68 119.18L7.28 131H5.76L1.56 116.56H3.06L6.52 128.48L9.94 116.56H11.42L14.88 128.48L18.34 116.56H19.84L15.64 131ZM28.5055 125.84C28.5055 125.027 28.2988 124.367 27.8855 123.86C27.4855 123.34 26.9588 123.08 26.3055 123.08C25.8521 123.08 25.4255 123.227 25.0255 123.52C24.6255 123.8 24.3055 124.18 24.0655 124.66C23.8255 125.14 23.7055 125.653 23.7055 126.2V131H22.2655V116.96H23.7055V123.26C23.9721 122.82 24.3321 122.467 24.7855 122.2C25.2521 121.92 25.7588 121.78 26.3055 121.78C26.9988 121.78 27.6188 121.953 28.1655 122.3C28.7255 122.633 29.1588 123.107 29.4655 123.72C29.7855 124.32 29.9455 125 29.9455 125.76V131H28.5055V125.84ZM36.9663 131.1C36.1129 131.1 35.3529 130.9 34.6863 130.5C34.0196 130.1 33.4996 129.547 33.1263 128.84C32.7529 128.133 32.5663 127.333 32.5663 126.44C32.5663 125.547 32.7529 124.747 33.1263 124.04C33.4996 123.333 34.0196 122.78 34.6863 122.38C35.3529 121.98 36.1129 121.78 36.9663 121.78C37.8196 121.78 38.5196 121.953 39.0663 122.3C39.6129 122.647 40.0063 123.007 40.2463 123.38C40.4996 123.753 40.6663 124.06 40.7463 124.3C41.0129 125.02 41.1463 125.753 41.1463 126.5C41.1463 126.673 41.1396 126.813 41.1263 126.92C41.1129 127.013 41.1063 127.073 41.1063 127.1H34.0663C34.1863 127.887 34.5129 128.533 35.0463 129.04C35.5929 129.547 36.2329 129.8 36.9663 129.8C37.5529 129.8 38.0463 129.707 38.4463 129.52C38.8463 129.32 39.1263 129.127 39.2863 128.94C39.4596 128.753 39.6196 128.553 39.7663 128.34L40.8863 128.98C40.6196 129.553 40.1463 130.053 39.4663 130.48C38.7996 130.893 37.9663 131.1 36.9663 131.1ZM39.6863 125.8C39.4996 123.987 38.5929 123.08 36.9663 123.08C36.2196 123.08 35.5796 123.333 35.0463 123.84C34.5129 124.347 34.1863 125.007 34.0663 125.82L39.6863 125.8ZM43.3541 121.78H44.7941V123.4C45.1141 122.88 45.5674 122.46 46.1541 122.14C46.7407 121.82 47.3607 121.667 48.0141 121.68V123.1C47.4541 123.087 46.9274 123.227 46.4341 123.52C45.9407 123.8 45.5407 124.187 45.2341 124.68C44.9407 125.16 44.7941 125.687 44.7941 126.26V131H43.3541V121.78ZM53.6264 131.1C52.7731 131.1 52.0131 130.9 51.3464 130.5C50.6797 130.1 50.1597 129.547 49.7864 128.84C49.4131 128.133 49.2264 127.333 49.2264 126.44C49.2264 125.547 49.4131 124.747 49.7864 124.04C50.1597 123.333 50.6797 122.78 51.3464 122.38C52.0131 121.98 52.7731 121.78 53.6264 121.78C54.4797 121.78 55.1797 121.953 55.7264 122.3C56.2731 122.647 56.6664 123.007 56.9064 123.38C57.1597 123.753 57.3264 124.06 57.4064 124.3C57.6731 125.02 57.8064 125.753 57.8064 126.5C57.8064 126.673 57.7997 126.813 57.7864 126.92C57.7731 127.013 57.7664 127.073 57.7664 127.1H50.7264C50.8464 127.887 51.1731 128.533 51.7064 129.04C52.2531 129.547 52.8931 129.8 53.6264 129.8C54.2131 129.8 54.7064 129.707 55.1064 129.52C55.5064 129.32 55.7864 129.127 55.9464 128.94C56.1197 128.753 56.2797 128.553 56.4264 128.34L57.5464 128.98C57.2797 129.553 56.8064 130.053 56.1264 130.48C55.4597 130.893 54.6264 131.1 53.6264 131.1ZM56.3464 125.8C56.1597 123.987 55.2531 123.08 53.6264 123.08C52.8797 123.08 52.2397 123.333 51.7064 123.84C51.1731 124.347 50.8464 125.007 50.7264 125.82L56.3464 125.8ZM79.2142 131H77.7142L74.2542 119.18L70.8542 131H69.3342L65.1342 116.56H66.6342L70.0942 128.48L73.5142 116.56H74.9942L78.4542 128.48L81.9142 116.56H83.4142L79.2142 131ZM88.5283 131.14C87.6883 131.14 86.9349 130.94 86.2683 130.54C85.6016 130.14 85.0816 129.587 84.7083 128.88C84.3349 128.173 84.1483 127.373 84.1483 126.48C84.1483 125.587 84.3349 124.787 84.7083 124.08C85.0816 123.36 85.6016 122.8 86.2683 122.4C86.9349 122 87.6883 121.8 88.5283 121.8C89.0616 121.8 89.5883 121.947 90.1083 122.24C90.6416 122.533 91.1083 122.96 91.5083 123.52V121.78H92.9483V131H91.5083V129.4C91.1083 130 90.6483 130.44 90.1283 130.72C89.6216 131 89.0883 131.14 88.5283 131.14ZM88.5483 129.84C89.0683 129.84 89.5549 129.7 90.0083 129.42C90.4616 129.127 90.8283 128.727 91.1083 128.22C91.3883 127.7 91.5283 127.12 91.5283 126.48C91.5283 125.853 91.3883 125.28 91.1083 124.76C90.8283 124.24 90.4616 123.833 90.0083 123.54C89.5549 123.247 89.0683 123.1 88.5483 123.1C87.6816 123.1 86.9683 123.42 86.4083 124.06C85.8616 124.687 85.5883 125.493 85.5883 126.48C85.5883 127.467 85.8616 128.273 86.4083 128.9C86.9683 129.527 87.6816 129.84 88.5483 129.84ZM95.3267 121.78H96.7667V123.4C97.0867 122.88 97.5401 122.46 98.1267 122.14C98.7134 121.82 99.3334 121.667 99.9867 121.68V123.1C99.4267 123.087 98.9001 123.227 98.4067 123.52C97.9134 123.8 97.5134 124.187 97.2067 124.68C96.9134 125.16 96.7667 125.687 96.7667 126.26V131H95.3267V121.78ZM114.22 125.36C114.22 124.693 114.027 124.147 113.64 123.72C113.267 123.293 112.78 123.08 112.18 123.08C111.473 123.08 110.9 123.28 110.46 123.68C110.02 124.067 109.8 124.567 109.8 125.18V131H108.36V125.36C108.36 124.693 108.173 124.147 107.8 123.72C107.427 123.293 106.947 123.08 106.36 123.08C105.667 123.08 105.093 123.327 104.64 123.82C104.187 124.313 103.96 124.9 103.96 125.58V131H102.52V121.78H103.96V123.14C104.24 122.74 104.6 122.413 105.04 122.16C105.48 121.907 105.92 121.78 106.36 121.78C106.947 121.78 107.5 121.94 108.02 122.26C108.553 122.58 108.947 122.993 109.2 123.5C109.507 122.993 109.933 122.58 110.48 122.26C111.027 121.94 111.593 121.78 112.18 121.78C112.847 121.78 113.44 121.927 113.96 122.22C114.493 122.513 114.907 122.92 115.2 123.44C115.507 123.96 115.66 124.553 115.66 125.22V131H114.22V125.36ZM119.202 123.06H117.543V121.78H119.202V118.6H120.643V121.78H122.823V123.06H120.643V131H119.202V123.06ZM131.181 125.84C131.181 125.027 130.975 124.367 130.561 123.86C130.161 123.34 129.635 123.08 128.981 123.08C128.528 123.08 128.101 123.227 127.701 123.52C127.301 123.8 126.981 124.18 126.741 124.66C126.501 125.14 126.381 125.653 126.381 126.2V131H124.941V116.96H126.381V123.26C126.648 122.82 127.008 122.467 127.461 122.2C127.928 121.92 128.435 121.78 128.981 121.78C129.675 121.78 130.295 121.953 130.841 122.3C131.401 122.633 131.835 123.107 132.141 123.72C132.461 124.32 132.621 125 132.621 125.76V131H131.181V125.84ZM147.587 131.16C146.213 131.16 144.987 130.847 143.907 130.22C142.827 129.593 141.98 128.72 141.367 127.6C140.767 126.48 140.467 125.207 140.467 123.78C140.467 122.353 140.767 121.08 141.367 119.96C141.98 118.84 142.827 117.967 143.907 117.34C144.987 116.713 146.213 116.4 147.587 116.4C148.56 116.4 149.48 116.593 150.347 116.98C151.213 117.353 151.973 117.88 152.627 118.56L151.647 119.36C151.14 118.827 150.527 118.413 149.807 118.12C149.1 117.827 148.36 117.68 147.587 117.68C146.493 117.68 145.513 117.94 144.647 118.46C143.793 118.98 143.127 119.707 142.647 120.64C142.167 121.56 141.927 122.607 141.927 123.78C141.927 124.953 142.167 126.007 142.647 126.94C143.127 127.86 143.793 128.58 144.647 129.1C145.513 129.62 146.493 129.88 147.587 129.88C148.36 129.88 149.093 129.733 149.787 129.44C150.48 129.147 151.087 128.733 151.607 128.2L152.627 129C151.973 129.68 151.213 130.213 150.347 130.6C149.48 130.973 148.56 131.16 147.587 131.16ZM158.997 129.84C159.864 129.84 160.57 129.527 161.117 128.9C161.677 128.26 161.957 127.447 161.957 126.46C161.957 125.473 161.677 124.667 161.117 124.04C160.57 123.4 159.864 123.08 158.997 123.08C158.13 123.08 157.424 123.393 156.877 124.02C156.33 124.647 156.057 125.46 156.057 126.46C156.057 127.46 156.33 128.273 156.877 128.9C157.424 129.527 158.13 129.84 158.997 129.84ZM158.997 121.78C159.85 121.78 160.61 121.98 161.277 122.38C161.944 122.78 162.464 123.34 162.837 124.06C163.21 124.767 163.397 125.567 163.397 126.46C163.397 127.353 163.21 128.16 162.837 128.88C162.464 129.587 161.944 130.14 161.277 130.54C160.61 130.94 159.85 131.14 158.997 131.14C158.157 131.14 157.404 130.94 156.737 130.54C156.07 130.14 155.55 129.587 155.177 128.88C154.804 128.16 154.617 127.353 154.617 126.46C154.617 125.567 154.804 124.767 155.177 124.06C155.55 123.34 156.07 122.78 156.737 122.38C157.404 121.98 158.157 121.78 158.997 121.78ZM177.54 125.36C177.54 124.693 177.347 124.147 176.96 123.72C176.587 123.293 176.1 123.08 175.5 123.08C174.793 123.08 174.22 123.28 173.78 123.68C173.34 124.067 173.12 124.567 173.12 125.18V131H171.68V125.36C171.68 124.693 171.493 124.147 171.12 123.72C170.747 123.293 170.267 123.08 169.68 123.08C168.987 123.08 168.413 123.327 167.96 123.82C167.507 124.313 167.28 124.9 167.28 125.58V131H165.84V121.78H167.28V123.14C167.56 122.74 167.92 122.413 168.36 122.16C168.8 121.907 169.24 121.78 169.68 121.78C170.267 121.78 170.82 121.94 171.34 122.26C171.873 122.58 172.267 122.993 172.52 123.5C172.827 122.993 173.253 122.58 173.8 122.26C174.347 121.94 174.913 121.78 175.5 121.78C176.167 121.78 176.76 121.927 177.28 122.22C177.813 122.513 178.227 122.92 178.52 123.44C178.827 123.96 178.98 124.553 178.98 125.22V131H177.54V125.36ZM185.853 131.1C185 131.1 184.24 130.9 183.573 130.5C182.906 130.1 182.386 129.547 182.013 128.84C181.64 128.133 181.453 127.333 181.453 126.44C181.453 125.547 181.64 124.747 182.013 124.04C182.386 123.333 182.906 122.78 183.573 122.38C184.24 121.98 185 121.78 185.853 121.78C186.706 121.78 187.406 121.953 187.953 122.3C188.5 122.647 188.893 123.007 189.133 123.38C189.386 123.753 189.553 124.06 189.633 124.3C189.9 125.02 190.033 125.753 190.033 126.5C190.033 126.673 190.026 126.813 190.013 126.92C190 127.013 189.993 127.073 189.993 127.1H182.953C183.073 127.887 183.4 128.533 183.933 129.04C184.48 129.547 185.12 129.8 185.853 129.8C186.44 129.8 186.933 129.707 187.333 129.52C187.733 129.32 188.013 129.127 188.173 128.94C188.346 128.753 188.506 128.553 188.653 128.34L189.773 128.98C189.506 129.553 189.033 130.053 188.353 130.48C187.686 130.893 186.853 131.1 185.853 131.1ZM188.573 125.8C188.386 123.987 187.48 123.08 185.853 123.08C185.106 123.08 184.466 123.333 183.933 123.84C183.4 124.347 183.073 125.007 182.953 125.82L188.573 125.8ZM193.141 128.16C193.394 128.693 193.754 129.1 194.221 129.38C194.701 129.66 195.147 129.8 195.561 129.8C196.161 129.8 196.654 129.68 197.041 129.44C197.427 129.187 197.621 128.847 197.621 128.42C197.621 128.153 197.521 127.933 197.321 127.76C197.121 127.573 196.887 127.427 196.621 127.32C196.354 127.213 195.954 127.073 195.421 126.9C194.754 126.673 194.234 126.473 193.861 126.3C193.487 126.127 193.147 125.867 192.841 125.52C192.534 125.16 192.381 124.713 192.381 124.18C192.381 123.433 192.687 122.833 193.301 122.38C193.914 121.927 194.681 121.7 195.601 121.7C196.001 121.7 196.427 121.78 196.881 121.94C197.334 122.087 197.741 122.333 198.101 122.68C198.474 123.013 198.727 123.433 198.861 123.94L197.541 124.36C197.421 123.867 197.167 123.52 196.781 123.32C196.394 123.107 196.001 123 195.601 123C195.081 123 194.654 123.107 194.321 123.32C193.987 123.533 193.821 123.82 193.821 124.18C193.821 124.447 193.914 124.667 194.101 124.84C194.287 125.013 194.507 125.153 194.761 125.26C195.027 125.353 195.441 125.493 196.001 125.68C196.667 125.907 197.194 126.113 197.581 126.3C197.967 126.473 198.307 126.733 198.601 127.08C198.907 127.427 199.061 127.873 199.061 128.42C199.061 129.22 198.727 129.867 198.061 130.36C197.394 130.853 196.561 131.1 195.561 131.1C194.841 131.1 194.154 130.907 193.501 130.52C192.847 130.133 192.334 129.587 191.961 128.88L193.141 128.16ZM216.244 117.84H211.924V131H210.484V117.84H206.184V116.56H216.244V117.84ZM220.735 129.84C221.602 129.84 222.309 129.527 222.855 128.9C223.415 128.26 223.695 127.447 223.695 126.46C223.695 125.473 223.415 124.667 222.855 124.04C222.309 123.4 221.602 123.08 220.735 123.08C219.869 123.08 219.162 123.393 218.615 124.02C218.069 124.647 217.795 125.46 217.795 126.46C217.795 127.46 218.069 128.273 218.615 128.9C219.162 129.527 219.869 129.84 220.735 129.84ZM220.735 121.78C221.589 121.78 222.349 121.98 223.015 122.38C223.682 122.78 224.202 123.34 224.575 124.06C224.949 124.767 225.135 125.567 225.135 126.46C225.135 127.353 224.949 128.16 224.575 128.88C224.202 129.587 223.682 130.14 223.015 130.54C222.349 130.94 221.589 131.14 220.735 131.14C219.895 131.14 219.142 130.94 218.475 130.54C217.809 130.14 217.289 129.587 216.915 128.88C216.542 128.16 216.355 127.353 216.355 126.46C216.355 125.567 216.542 124.767 216.915 124.06C217.289 123.34 217.809 122.78 218.475 122.38C219.142 121.98 219.895 121.78 220.735 121.78ZM231.458 129.82C231.992 129.82 232.485 129.673 232.938 129.38C233.392 129.073 233.745 128.66 233.998 128.14C234.265 127.62 234.398 127.06 234.398 126.46C234.398 125.873 234.265 125.32 233.998 124.8C233.732 124.28 233.372 123.867 232.918 123.56C232.478 123.24 231.992 123.08 231.458 123.08C230.592 123.08 229.878 123.4 229.318 124.04C228.772 124.667 228.498 125.473 228.498 126.46C228.498 127.447 228.772 128.253 229.318 128.88C229.878 129.507 230.592 129.82 231.458 129.82ZM235.838 130.46C235.838 131.353 235.652 132.167 235.278 132.9C234.905 133.633 234.378 134.207 233.698 134.62C233.018 135.047 232.232 135.26 231.338 135.26C230.578 135.26 229.878 135.08 229.238 134.72C228.598 134.373 228.045 133.847 227.578 133.14L228.778 132.42C229.392 133.447 230.245 133.96 231.338 133.96C232.272 133.96 233.012 133.627 233.558 132.96C234.118 132.293 234.398 131.453 234.398 130.44V129.38C234.065 129.887 233.625 130.307 233.078 130.64C232.532 130.96 231.985 131.12 231.438 131.12C230.598 131.12 229.845 130.92 229.178 130.52C228.512 130.12 227.992 129.567 227.618 128.86C227.245 128.153 227.058 127.353 227.058 126.46C227.058 125.567 227.245 124.767 227.618 124.06C227.992 123.353 228.512 122.8 229.178 122.4C229.845 121.987 230.598 121.78 231.438 121.78C232.065 121.78 232.638 121.933 233.158 122.24C233.678 122.533 234.092 122.94 234.398 123.46V121.78H235.838V130.46ZM242.357 131.1C241.504 131.1 240.744 130.9 240.077 130.5C239.41 130.1 238.89 129.547 238.517 128.84C238.144 128.133 237.957 127.333 237.957 126.44C237.957 125.547 238.144 124.747 238.517 124.04C238.89 123.333 239.41 122.78 240.077 122.38C240.744 121.98 241.504 121.78 242.357 121.78C243.21 121.78 243.91 121.953 244.457 122.3C245.004 122.647 245.397 123.007 245.637 123.38C245.89 123.753 246.057 124.06 246.137 124.3C246.404 125.02 246.537 125.753 246.537 126.5C246.537 126.673 246.53 126.813 246.517 126.92C246.504 127.013 246.497 127.073 246.497 127.1H239.457C239.577 127.887 239.904 128.533 240.437 129.04C240.984 129.547 241.624 129.8 242.357 129.8C242.944 129.8 243.437 129.707 243.837 129.52C244.237 129.32 244.517 129.127 244.677 128.94C244.85 128.753 245.01 128.553 245.157 128.34L246.277 128.98C246.01 129.553 245.537 130.053 244.857 130.48C244.19 130.893 243.357 131.1 242.357 131.1ZM245.077 125.8C244.89 123.987 243.984 123.08 242.357 123.08C241.61 123.08 240.97 123.333 240.437 123.84C239.904 124.347 239.577 125.007 239.457 125.82L245.077 125.8ZM249.535 123.06H247.875V121.78H249.535V118.6H250.975V121.78H253.155V123.06H250.975V131H249.535V123.06ZM261.513 125.84C261.513 125.027 261.307 124.367 260.893 123.86C260.493 123.34 259.967 123.08 259.313 123.08C258.86 123.08 258.433 123.227 258.033 123.52C257.633 123.8 257.313 124.18 257.073 124.66C256.833 125.14 256.713 125.653 256.713 126.2V131H255.273V116.96H256.713V123.26C256.98 122.82 257.34 122.467 257.793 122.2C258.26 121.92 258.767 121.78 259.313 121.78C260.007 121.78 260.627 121.953 261.173 122.3C261.733 122.633 262.167 123.107 262.473 123.72C262.793 124.32 262.953 125 262.953 125.76V131H261.513V125.84ZM269.974 131.1C269.121 131.1 268.361 130.9 267.694 130.5C267.027 130.1 266.507 129.547 266.134 128.84C265.761 128.133 265.574 127.333 265.574 126.44C265.574 125.547 265.761 124.747 266.134 124.04C266.507 123.333 267.027 122.78 267.694 122.38C268.361 121.98 269.121 121.78 269.974 121.78C270.827 121.78 271.527 121.953 272.074 122.3C272.621 122.647 273.014 123.007 273.254 123.38C273.507 123.753 273.674 124.06 273.754 124.3C274.021 125.02 274.154 125.753 274.154 126.5C274.154 126.673 274.147 126.813 274.134 126.92C274.121 127.013 274.114 127.073 274.114 127.1H267.074C267.194 127.887 267.521 128.533 268.054 129.04C268.601 129.547 269.241 129.8 269.974 129.8C270.561 129.8 271.054 129.707 271.454 129.52C271.854 129.32 272.134 129.127 272.294 128.94C272.467 128.753 272.627 128.553 272.774 128.34L273.894 128.98C273.627 129.553 273.154 130.053 272.474 130.48C271.807 130.893 270.974 131.1 269.974 131.1ZM272.694 125.8C272.507 123.987 271.601 123.08 269.974 123.08C269.227 123.08 268.587 123.333 268.054 123.84C267.521 124.347 267.194 125.007 267.074 125.82L272.694 125.8ZM276.362 121.78H277.802V123.4C278.122 122.88 278.575 122.46 279.162 122.14C279.749 121.82 280.369 121.667 281.022 121.68V123.1C280.462 123.087 279.935 123.227 279.442 123.52C278.949 123.8 278.549 124.187 278.242 124.68C277.949 125.16 277.802 125.687 277.802 126.26V131H276.362V121.78Z" fill="white"/>
<defs>
<clipPath id="clip0_747_2206">
<rect width="65.6" height="80" fill="white" transform="translate(108.2 10)"/>
</clipPath>
</defs>
</svg>
