<svg width="115" height="100" viewBox="0 0 115 100" fill="none" xmlns="http://www.w3.org/2000/svg">
<g clip-path="url(#clip0_151_960)">
<path d="M37.1273 54.6175C37.2983 54.5943 37.52 54.5627 37.7924 54.5248C38.0627 54.4889 38.3456 54.4826 38.6413 54.5058C38.9115 54.5311 39.1522 54.5922 39.3613 54.6891C39.5703 54.7881 39.6865 54.9588 39.7118 55.2053C39.7604 55.5487 39.6126 55.8248 39.2684 56.0333C38.9242 56.2419 38.4576 56.4084 37.8663 56.5306C37.5961 56.5812 37.0977 56.6591 36.3714 56.7708C35.645 56.8803 34.8405 57.0089 33.9537 57.1564C33.0689 57.3038 32.1631 57.4577 31.2404 57.6157C30.3176 57.7758 29.511 57.917 28.8227 58.0392C28.0604 58.1867 27.3341 58.2899 26.6457 58.351C25.9573 58.4121 25.3534 58.3573 24.8382 58.1846C24.3209 58.0139 23.9028 57.681 23.584 57.1901C23.263 56.6991 23.092 55.9743 23.0667 55.0178V46.3097C23.0667 46.1011 23.054 45.8862 23.0287 45.6649C23.0033 45.469 22.9548 45.2962 22.8808 45.1487C22.8069 45.0012 22.7077 44.9043 22.5852 44.8537C22.0933 44.7063 21.7491 44.4745 21.5527 44.1542C21.3563 43.8361 21.3057 43.5158 21.4049 43.1977C21.5527 42.5845 22.07 42.1674 22.9548 41.9461C23.3728 41.8239 23.7656 41.786 24.1351 41.8366C24.5046 41.885 24.9459 42.0093 25.4632 42.2053C25.9552 42.18 26.5148 42.1631 27.1419 42.1505C27.769 42.1379 28.4025 42.1084 29.0423 42.0578C29.6567 42.0346 30.2353 41.9904 30.7758 41.9293C31.3164 41.8682 31.7345 41.7755 32.0301 41.6533C32.9148 41.5058 33.7277 41.3962 34.4647 41.3225C35.2016 41.2487 35.7062 41.2361 35.9786 41.2866C36.6184 41.3604 36.9373 41.7902 36.9373 42.5761C36.9373 43.1155 36.5192 43.52 35.683 43.7918C35.5352 43.8403 35.3008 43.8656 34.982 43.8656C34.6631 43.8656 34.1585 43.8782 33.468 43.9014C32.7543 43.9267 31.802 43.9688 30.609 44.0299C29.416 44.091 27.8852 44.1964 26.0143 44.3439V54.5058C26.0143 54.8008 26.0756 55.0473 26.1981 55.2432C26.2952 55.4392 26.4747 55.5698 26.7323 55.6288C26.9899 55.6899 27.3657 55.6836 27.8577 55.6098C28.128 55.5614 28.5271 55.5066 29.0571 55.4434C29.5849 55.3823 30.1825 55.3149 30.8455 55.2411C31.5106 55.1927 32.1927 55.1316 32.8937 55.0578C33.5947 54.9841 34.2535 54.9103 34.868 54.8366C35.4592 54.7881 35.9554 54.7439 36.3629 54.7081C36.7683 54.6722 37.0196 54.6406 37.1188 54.6154L37.1273 54.6175ZM46.2406 50.0517C46.6587 50.0032 47.0515 49.9653 47.421 49.9421C47.7905 49.9189 48.0967 49.881 48.3437 49.8304C48.7618 49.782 49.106 49.7272 49.3762 49.664C49.6465 49.6029 49.9295 49.5102 50.2251 49.388C51.0612 49.5354 51.7327 49.6703 52.2352 49.7925C52.7399 49.9147 53.0904 50.0137 53.2868 50.0875C53.7049 50.3087 53.7788 50.7996 53.5085 51.5602C53.2382 52.2471 52.7568 52.5168 52.0684 52.3693C51.4772 52.2471 50.9662 52.1923 50.5376 52.2029C50.1068 52.2155 49.6085 52.2092 49.0426 52.1839C48.6245 52.2345 48.1684 52.2893 47.6765 52.3504C47.1845 52.4115 46.7052 52.4662 46.2385 52.5168V62.31C46.2385 64.594 46.097 66.3975 45.8141 67.7228C45.5312 69.0481 45.0941 69.7118 44.505 69.7118C44.184 69.7118 43.9391 69.539 43.7659 69.1956C43.5928 68.8522 43.4703 68.4476 43.3964 67.9799C43.3225 67.5121 43.2803 67.0402 43.2676 66.5619C43.2549 66.0836 43.2486 65.7086 43.2486 65.4389V35.7285C43.2486 35.2375 43.3711 34.8077 43.6181 34.439C43.8631 34.0703 44.2326 33.887 44.7246 33.887C45.2165 33.887 45.5924 34.0703 45.85 34.439C46.1076 34.8077 46.2364 35.2375 46.2364 35.7285V50.0517H46.2406Z" fill="#4C6633"/>
<path d="M58.4791 53.8803C58.6501 52.85 59.0386 51.8976 59.6404 51.0274C60.2422 50.1573 60.9749 49.3882 61.8364 48.7266C62.6979 48.0882 63.6502 47.5847 64.6954 47.218C65.7406 46.8493 66.7795 46.666 67.8141 46.666C68.8488 46.666 69.8243 46.8325 70.8209 47.1633C71.8176 47.4941 72.696 47.9681 73.4582 48.5813C74.2205 49.1944 74.8054 49.9318 75.2108 50.7915C75.6162 51.6511 75.745 52.6077 75.5972 53.6633C75.4747 54.5229 75.2044 55.3088 74.7864 56.0189C74.3683 56.731 73.851 57.3568 73.2365 57.8962C72.6221 58.4608 71.9274 58.9328 71.1524 59.3142C70.3775 59.6955 69.5477 59.9842 68.6608 60.1801V64.6343L77.2949 64.0085C77.7129 63.96 78.0212 63.9116 78.2176 63.861C78.414 63.8126 78.661 63.7262 78.9566 63.604C79.1783 63.6545 79.5162 63.6903 79.9723 63.7135C80.4262 63.7388 80.8887 63.7873 81.3553 63.861C81.7987 63.96 82.1978 64.0949 82.5547 64.2656C82.9115 64.4383 83.0889 64.6954 83.0889 65.0388C83.0889 65.3591 82.9896 65.7383 82.7933 66.1808C82.7194 66.3536 82.5652 66.4758 82.3329 66.5495C82.0986 66.6233 81.8473 66.6591 81.577 66.6591C81.3067 66.6591 81.0301 66.6464 80.7472 66.6233C80.4642 66.6001 80.213 66.5621 79.9913 66.5137C79.5225 66.4168 79.0495 66.3788 78.5702 66.402C78.0909 66.4273 77.5799 66.4526 77.0394 66.4758C76.2518 66.4758 75.4895 66.4884 74.7505 66.5137C74.0114 66.539 73.1879 66.5748 72.2779 66.6233C71.3425 66.6717 70.2719 66.7391 69.0684 66.8255C67.8627 66.9119 66.3994 67.0151 64.6764 67.1374C63.7917 67.2111 62.9471 67.2785 62.1489 67.3396C61.3486 67.4007 60.5568 67.4555 59.7692 67.5061C58.9816 67.5798 58.1687 67.6472 57.3346 67.7083C56.4985 67.7694 55.6243 67.8242 54.7142 67.8748C54.1483 67.8516 53.6373 67.9127 53.1834 68.0581C52.7273 68.2056 52.3282 68.2667 51.984 68.2414C51.7877 68.2414 51.5047 68.1866 51.1352 68.075C50.7657 67.9633 50.3476 67.8116 49.881 67.6156C49.6825 67.5419 49.4861 67.426 49.2897 67.2659C49.0934 67.1057 48.9329 66.9288 48.8104 66.7328C48.6879 66.5622 48.6373 66.3704 48.6626 66.1618C48.6879 65.9532 48.8231 65.7383 49.068 65.5171C49.239 65.3696 49.4544 65.2895 49.7141 65.2769C49.9717 65.2643 50.2484 65.2706 50.544 65.2959C50.8396 65.3464 51.1394 65.4012 51.4477 65.4623C51.7539 65.5234 52.0305 65.555 52.2775 65.555C53.1876 65.555 54.1103 65.5318 55.0457 65.4813C55.9811 65.4328 56.9757 65.3591 58.0335 65.26C59.0914 65.1863 60.2401 65.1062 61.4838 65.0198C62.7253 64.9335 64.1337 64.8534 65.7089 64.7818V60.4372C64.7503 60.4119 63.7959 60.2602 62.8499 59.9779C61.9018 59.6955 61.0847 59.2847 60.3963 58.7432C59.6826 58.2038 59.1421 57.5275 58.7726 56.7184C58.4031 55.9093 58.3038 54.9633 58.477 53.8824L58.4791 53.8803ZM76.9296 78.1821C77.5208 78.2306 77.8819 78.3717 78.0191 78.6056C78.1542 78.8395 78.1965 79.0902 78.1479 79.3599C78.0972 79.7033 77.884 80.0046 77.5018 80.2617C77.1196 80.5187 76.6213 80.6473 76.0068 80.6473C75.5887 80.6473 75.0968 80.6599 74.5309 80.6852C73.965 80.7084 73.264 80.7463 72.4278 80.7947L62.0961 81.4205C61.0868 81.4437 60.3499 81.3826 59.8811 81.2372C59.4124 81.0897 59.007 80.8432 58.6628 80.4998C58.2933 80.1058 58.0589 79.5369 57.9617 78.7868C57.8625 78.0388 57.8139 77.3456 57.8139 76.7072C57.7886 75.8729 57.7717 75.0259 57.759 74.1662C57.7464 73.3066 57.7274 72.4596 57.7041 71.6252C57.7041 71.1343 57.8266 70.7108 58.0737 70.3547C58.3186 69.9986 58.6881 69.8216 59.1801 69.8216C59.6721 69.8216 60.0353 70.0007 60.2696 70.3547C60.504 70.7108 60.6202 71.1343 60.6202 71.6252L60.73 76.0077V77.057C60.73 77.3878 60.7785 77.6891 60.8778 77.9588C60.9517 78.2284 61.0995 78.4497 61.3212 78.6225C61.5429 78.7931 61.8871 78.8921 62.3537 78.9174C64.0514 78.869 65.5886 78.8079 66.9653 78.7341C67.5565 78.7088 68.1393 78.6857 68.7178 78.6604C69.2964 78.6351 69.8306 78.6098 70.3226 78.5866C70.8146 78.5614 71.2263 78.5361 71.56 78.5129C71.8915 78.4876 72.1195 78.4623 72.242 78.4392C72.6601 78.3907 73.0591 78.3296 73.4413 78.2558C73.8235 78.1821 74.1614 78.0725 74.457 77.9251C74.8497 77.9988 75.2509 78.0473 75.6563 78.0725C76.0617 78.0957 76.4861 78.1336 76.9296 78.1821ZM72.2441 53.8087C72.3412 53.0712 72.299 52.4033 72.1153 51.8028C71.9316 51.2023 71.6402 50.6798 71.2475 50.2373C70.8294 49.8202 70.3247 49.4999 69.7356 49.2808C69.1444 49.0595 68.494 48.95 67.7803 48.95C67.1152 48.95 66.4585 49.0659 65.8061 49.2997C65.1536 49.5336 64.5581 49.8581 64.0176 50.2753C63.4517 50.7177 62.9724 51.2381 62.5775 51.8407C62.1827 52.4433 61.9251 53.1112 61.8026 53.8466C61.7034 54.4112 61.7477 54.9633 61.9314 55.5027C62.1151 56.042 62.4171 56.5098 62.8351 56.9017C63.2532 57.3189 63.7642 57.6497 64.366 57.8962C64.9678 58.1427 65.6266 58.2649 66.3403 58.2649C66.9801 58.2649 67.6262 58.1553 68.2765 57.9341C68.929 57.7129 69.5371 57.4074 70.103 57.0134C70.6436 56.6215 71.1123 56.1537 71.5051 55.6143C71.8978 55.0749 72.1448 54.4723 72.2441 53.8108V53.8087Z" fill="#4C6633"/>
<path d="M65.4408 22.5244C61.8534 24.2311 58.9796 26.6183 56.9124 29.9051C56.5725 29.7724 56.6316 29.5322 56.64 29.3447C56.7329 27.2061 57.529 25.4152 59.0809 23.8813C62.0666 20.9315 65.7555 19.8465 69.8011 19.602C70.3375 19.5704 70.5465 19.8844 70.234 20.3268C69.174 21.8228 68.6293 23.5674 67.8205 25.1834C67.1765 26.4687 66.4143 27.6654 65.3332 28.6346C63.8593 29.9557 62.1574 30.8175 60.1916 31.1293C59.4695 31.2431 58.7452 31.3505 58.0104 31.3C57.4656 31.262 57.3875 31.1588 57.6451 30.7058C58.2722 29.6038 58.988 28.5672 59.8812 27.6549C60.35 27.1766 60.7427 26.6309 61.2051 26.14C61.8301 25.4763 62.5143 24.8863 63.209 24.3174C63.7411 23.8813 64.3344 23.4936 64.9109 23.0975C65.0967 22.969 65.3353 22.8931 65.443 22.5265L65.4408 22.5244Z" fill="#4C6633"/>
<path d="M49.0021 20.9229C51.8886 22.2946 54.2007 24.2161 55.8624 26.8604C56.1348 26.7529 56.0884 26.5612 56.082 26.4095C56.006 24.6881 55.3684 23.249 54.1204 22.0144C51.7175 19.6419 48.7508 18.7696 45.497 18.5716C45.0662 18.5463 44.8973 18.7991 45.1486 19.1531C46.0016 20.3562 46.4387 21.7594 47.0912 23.0594C47.6085 24.0939 48.223 25.0568 49.0908 25.8343C50.2754 26.8962 51.6457 27.5915 53.2252 27.8401C53.8058 27.9307 54.3886 28.0171 54.9798 27.9771C55.419 27.9476 55.4803 27.8633 55.2733 27.4988C54.7687 26.6139 54.1922 25.7795 53.4743 25.0442C53.0985 24.6586 52.7817 24.2204 52.408 23.8242C51.9055 23.2912 51.3543 22.815 50.7969 22.3578C50.3683 22.0059 49.8911 21.6962 49.4286 21.3781C49.2787 21.2748 49.0866 21.2137 49 20.9187L49.0021 20.9229Z" fill="#807333"/>
<path d="M89.4677 74.9204C89.9829 75.2849 90.5044 75.6262 91.0344 75.9444C91.5644 76.2625 92.1514 76.4269 92.7975 76.4395C92.8081 76.4753 92.8123 76.5048 92.8123 76.528V76.5807C92.8123 76.5933 92.8102 76.6165 92.8039 76.6523C92.7996 76.6881 92.787 76.7176 92.7659 76.7408C92.6455 76.8946 92.504 77.0168 92.3414 77.1116C92.181 77.2065 92.0141 77.2655 91.8431 77.2886C91.6721 77.2296 91.5116 77.1285 91.3659 76.9873C91.2202 76.8462 91.0597 76.7219 90.8887 76.6165L89.2692 75.2912C88.9165 75.7147 88.5512 76.0898 88.1712 76.4142C87.7932 76.7387 87.3962 77.0232 86.9845 77.2718C86.9233 77.295 86.8641 77.316 86.8029 77.3329C86.7417 77.3497 86.6868 77.3603 86.6361 77.3603C86.5157 77.3603 86.3975 77.3244 86.2814 77.2549C86.1652 77.1833 86.066 77.1011 85.9857 77.0084C85.9646 76.9726 85.9393 76.9368 85.9097 76.9031C85.8802 76.8672 85.8633 76.8272 85.8633 76.7787V76.7071L85.9541 76.6544C86.5791 76.6313 87.1513 76.4395 87.6707 76.0792C88.1902 75.721 88.6864 75.2807 89.1615 74.7624C89.1805 74.7624 89.21 74.7603 89.2438 74.7539C89.2797 74.7476 89.3072 74.7455 89.3262 74.7455C89.3452 74.7455 89.3726 74.7518 89.4022 74.7624C89.4318 74.775 89.4529 74.8045 89.4634 74.8509V74.9225L89.4677 74.9204ZM87.8186 73.3823V73.7721C87.8376 73.7847 87.8692 73.789 87.9093 73.789H88.3781C88.4689 73.789 88.5576 73.8016 88.642 73.8269C88.7286 73.8522 88.7962 73.9175 88.8469 74.0186V74.2124C88.8469 74.2251 88.8426 74.2441 88.8321 74.2693L88.7708 74.3473L87.8481 74.3663C87.8376 74.3915 87.8312 74.4253 87.8249 74.4674C87.8207 74.5095 87.8164 74.5475 87.8164 74.5833V74.7961C87.8164 74.8783 87.8059 74.9562 87.7869 75.0257C87.7679 75.0974 87.713 75.1437 87.6222 75.1669C87.4279 75.1437 87.3308 75.0426 87.3308 74.8656V74.4231C87.24 74.4231 87.1112 74.44 86.9444 74.4758C86.7776 74.5116 86.6129 74.5517 86.4524 74.6001C86.4123 74.5875 86.37 74.577 86.3236 74.5643C86.2792 74.5517 86.2455 74.5116 86.2243 74.44C86.2243 74.4147 86.2222 74.3831 86.2159 74.3452C86.2117 74.3073 86.2075 74.2672 86.2075 74.2293C86.2075 74.1787 86.2117 74.1303 86.2222 74.0839C86.2328 74.0397 86.2476 74.0039 86.2687 73.9786C86.2877 73.9154 86.3215 73.869 86.3679 73.8437C86.4123 73.8184 86.4566 73.7995 86.4967 73.7868H87.1408C87.2168 73.7868 87.2801 73.7805 87.3308 73.77C87.3308 73.6878 87.3202 73.6014 87.3012 73.5129C87.2822 73.4244 87.2717 73.3402 87.2717 73.2559C87.2717 73.2432 87.2738 73.2201 87.2801 73.1843C87.2843 73.1484 87.2928 73.1252 87.3033 73.1126C87.3245 73.0536 87.3582 73.003 87.4068 72.963C87.4554 72.9209 87.5082 72.9019 87.5609 72.9019C87.6137 72.9019 87.6644 72.923 87.7088 72.963C87.7531 73.0052 87.789 73.0599 87.8164 73.1316V73.3781L87.8186 73.3823ZM88.0445 78.5591C88.0445 78.6413 88.0276 78.7277 87.9917 78.8162C87.9558 78.9047 87.9136 78.9911 87.8629 79.0732C87.7615 79.2144 87.656 79.3914 87.5462 79.6042C87.4343 79.817 87.2991 79.9223 87.1386 79.9223C87.1281 79.9223 87.1112 79.916 87.0859 79.9055C87.0605 79.8928 87.0373 79.8886 87.0183 79.8886C86.8979 79.817 86.8135 79.6969 86.7691 79.5262C86.7248 79.3556 86.7016 79.1933 86.7016 79.0395V78.9679L86.7311 78.8962C86.7818 78.8962 86.8304 78.8984 86.8747 78.9047C86.9212 78.911 86.9634 78.9131 87.0035 78.9131C87.1745 78.9131 87.3413 78.8689 87.5018 78.7804C87.6623 78.6919 87.8101 78.5781 87.941 78.4369H87.9558C87.9748 78.4369 87.9959 78.4432 88.017 78.4538C88.036 78.4664 88.0466 78.4833 88.0466 78.5065V78.5591H88.0445ZM89.5669 76.5091C89.5711 76.5807 89.5753 76.6439 89.5753 76.7029V77.0569H90.9816C91.0006 77.0821 91.0133 77.1137 91.0196 77.1496C91.0238 77.1875 91.0281 77.2191 91.0281 77.2423C91.0281 77.2802 91.026 77.3139 91.0196 77.3455C91.0154 77.3771 91.007 77.4045 90.9964 77.4298C90.9457 77.5415 90.8908 77.6131 90.8296 77.6447C90.7683 77.6763 90.7029 77.6911 90.6332 77.6911H89.5732V78.3105C89.5732 78.498 89.5838 78.7024 89.6028 78.9194C89.6239 79.1364 89.6387 79.3471 89.6492 79.5473C89.6197 79.7011 89.6007 79.8739 89.5965 80.0677C89.5922 80.2616 89.5162 80.3838 89.3684 80.4301H89.3536C89.3051 80.4301 89.2628 80.4133 89.229 80.3774C89.1953 80.3416 89.1678 80.289 89.1488 80.2194C89.1298 80.1246 89.115 80.0298 89.1045 79.9371C89.0939 79.8423 89.0897 79.7433 89.0897 79.6358V77.6932H88.6357C88.4942 77.6932 88.3507 77.7058 88.205 77.729C88.0593 77.7522 87.9241 77.788 87.8038 77.8343C87.7637 77.8217 87.7151 77.8112 87.6602 77.7985C87.6053 77.7859 87.5673 77.7437 87.5462 77.6721L87.5314 77.63C87.5314 77.5309 87.5398 77.4424 87.5546 77.3645C87.5694 77.2865 87.6116 77.2191 87.6834 77.1622C87.7024 77.1053 87.732 77.0737 87.7658 77.0674C87.8017 77.0611 87.8397 77.0569 87.8798 77.0569H89.0897V76.6144C89.0897 76.5428 89.1024 76.4711 89.1256 76.3932C89.1509 76.3173 89.1868 76.2541 89.2354 76.2077C89.2945 76.2077 89.3536 76.2141 89.4106 76.2246C89.4698 76.2373 89.5078 76.271 89.5289 76.33C89.5479 76.3763 89.5606 76.4353 89.5648 76.5069L89.5669 76.5091ZM91.1843 73.1168C91.1885 73.14 91.1928 73.1632 91.1928 73.1885C91.1928 73.2706 91.1822 73.3444 91.1632 73.4097C91.1421 73.475 91.1336 73.5488 91.1336 73.6309C91.1843 73.6436 91.235 73.652 91.2857 73.6583C91.3363 73.6646 91.387 73.6667 91.4377 73.6667H92.2844C92.3034 73.7005 92.3161 73.7321 92.3224 73.7616C92.3267 73.7911 92.3309 73.8227 92.3309 73.8564C92.3309 73.8901 92.3288 73.9259 92.3224 73.9596C92.3182 73.9933 92.3098 74.0228 92.2992 74.046C92.2591 74.1492 92.2063 74.2188 92.1408 74.2525C92.0754 74.2862 92.012 74.3031 91.9508 74.3031H91.0091C90.9605 74.3031 90.9373 74.3452 90.9373 74.4274V74.5327C90.9162 74.6043 90.8972 74.6865 90.8803 74.7792C90.8634 74.874 90.8127 74.933 90.7261 74.9562C90.7156 74.9562 90.6987 74.9625 90.6776 74.9731C90.667 74.9731 90.648 74.9667 90.6205 74.9562C90.5931 74.9436 90.5635 74.9394 90.5319 74.9394C90.5107 74.9162 90.4917 74.8783 90.4748 74.8256C90.458 74.7729 90.4516 74.7223 90.4516 74.676V74.3052H90.3123C90.2194 74.3052 90.118 74.3136 90.0103 74.3325C89.9026 74.3494 89.7971 74.3705 89.6936 74.3937C89.6556 74.381 89.6155 74.3726 89.5732 74.3663C89.531 74.3599 89.4951 74.322 89.4677 74.2504V74.1598C89.4677 74.0881 89.4782 74.0186 89.4972 73.9512C89.5162 73.8838 89.5521 73.8269 89.6028 73.7784C89.6239 73.73 89.6514 73.7005 89.6851 73.6878C89.721 73.6752 89.759 73.6689 89.7992 73.6689H90.5551C90.6058 73.5382 90.6227 73.3823 90.6079 73.2011C90.5931 73.0178 90.6564 72.904 90.7979 72.8577H90.8887C90.9499 72.8577 91.007 72.8661 91.0618 72.8851C91.1167 72.9019 91.1548 72.9525 91.1759 73.0347C91.1759 73.0705 91.178 73.1 91.1843 73.1231V73.1168ZM91.2075 78.7193C91.3997 78.8373 91.6066 78.8962 91.8283 78.8962H91.9339C91.955 78.9194 91.9656 78.9468 91.9719 78.9763C91.9761 79.0058 91.9804 79.0374 91.9804 79.0732V79.1533C91.9804 79.1828 91.9698 79.2144 91.9508 79.2502C91.8706 79.4377 91.7544 79.5705 91.6024 79.6484C91.4504 79.7243 91.3047 79.7917 91.1632 79.8507L91.0428 79.7622C90.9309 79.5621 90.8317 79.3619 90.7409 79.1617C90.6501 78.9616 90.5593 78.7614 90.4685 78.5612C90.458 78.5486 90.4537 78.5339 90.4537 78.517V78.4727C90.4537 78.4264 90.4643 78.3843 90.4833 78.3484C90.5044 78.3126 90.534 78.2958 90.5741 78.2958C90.5931 78.2958 90.6142 78.3084 90.6353 78.3316C90.8275 78.4727 91.0175 78.6034 91.2097 78.7193H91.2075Z" fill="#807333"/>
<path d="M92.5266 81.4288H86.1287C85.5122 81.4288 85.0117 80.8852 85.0117 80.2194V72.8598C85.0117 72.1919 85.5122 71.6504 86.1287 71.6504H92.5266C93.1432 71.6504 93.6436 72.194 93.6436 72.8598V80.2194C93.6436 80.8874 93.1432 81.4288 92.5266 81.4288ZM86.1287 72.0507C85.717 72.0507 85.3833 72.4131 85.3833 72.8577V80.2173C85.3833 80.6619 85.717 81.0243 86.1287 81.0243H92.5266C92.9384 81.0243 93.272 80.6619 93.272 80.2173V72.8577C93.272 72.4131 92.9384 72.0507 92.5266 72.0507H86.1287Z" fill="#807333"/>
</g>
<defs>
<clipPath id="clip0_151_960">
<rect width="72.2859" height="62.8573" fill="white" transform="translate(21.3555 18.5715)"/>
</clipPath>
</defs>
</svg>
