<svg width="115" height="100" viewBox="0 0 115 100" fill="none" xmlns="http://www.w3.org/2000/svg">
<g clip-path="url(#clip0_370_1255)">
<path d="M30.9207 56.0233C31.1438 55.9931 31.4331 55.9518 31.7884 55.9024C32.141 55.8556 32.5101 55.8474 32.8958 55.8776C33.2483 55.9106 33.5624 55.9903 33.8351 56.1168C34.1078 56.2459 34.2593 56.4686 34.2923 56.7902C34.3557 57.2382 34.1629 57.5983 33.7139 57.8704C33.2649 58.1425 32.6561 58.3596 31.8848 58.5191C31.5322 58.585 30.8822 58.6867 29.9346 58.8324C28.987 58.9753 27.9375 59.143 26.7806 59.3354C25.6264 59.5278 24.4447 59.7285 23.241 59.9346C22.0372 60.1435 20.985 60.3277 20.087 60.4871C19.0926 60.6795 18.145 60.8142 17.247 60.8939C16.349 60.9736 15.5612 60.9021 14.8891 60.6767C14.2142 60.4541 13.6688 60.0198 13.2529 59.3794C12.8342 58.739 12.6111 57.7934 12.578 56.5455V45.1854C12.578 44.9133 12.5615 44.633 12.5284 44.3444C12.4954 44.0887 12.432 43.8633 12.3356 43.6709C12.2392 43.4785 12.1098 43.3521 11.95 43.2861C11.3082 43.0937 10.8592 42.7914 10.603 42.3736C10.3468 41.9585 10.2807 41.5407 10.4102 41.1257C10.603 40.3259 11.2779 39.7816 12.432 39.493C12.9774 39.3336 13.4898 39.2841 13.9718 39.3501C14.4539 39.4133 15.0296 39.5755 15.7045 39.8311C16.3463 39.7981 17.0762 39.7761 17.8944 39.7596C18.7125 39.7431 19.5388 39.7047 20.3735 39.6387C21.175 39.6085 21.9298 39.5507 22.635 39.471C23.3401 39.3913 23.8855 39.2704 24.2712 39.111C25.4254 38.9186 26.4859 38.7756 27.4472 38.6794C28.4086 38.5832 29.0669 38.5667 29.4222 38.6327C30.2569 38.7289 30.6728 39.2896 30.6728 40.3149C30.6728 41.0185 30.1274 41.5462 29.0366 41.9008C28.8438 41.964 28.538 41.997 28.1221 41.997C27.7061 41.997 27.0478 42.0135 26.147 42.0438C25.216 42.0767 23.9737 42.1317 22.4174 42.2114C20.861 42.2911 18.864 42.4286 16.4234 42.621V55.8776C16.4234 56.2624 16.5033 56.584 16.6631 56.8396C16.7898 57.0953 17.0239 57.2657 17.36 57.3426C17.696 57.4224 18.1863 57.4141 18.8282 57.3179C19.1807 57.2547 19.7014 57.1832 20.3927 57.1008C21.0814 57.0211 21.8609 56.9331 22.7259 56.8369C23.5936 56.7737 24.4833 56.694 25.3978 56.5978C26.3123 56.5016 27.1717 56.4054 27.9733 56.3092C28.7446 56.2459 29.3919 56.1882 29.9236 56.1415C30.4524 56.0948 30.7802 56.0535 30.9097 56.0206L30.9207 56.0233ZM42.8095 50.067C43.3549 50.0038 43.8672 49.9543 44.3493 49.9241C44.8313 49.8938 45.2307 49.8444 45.553 49.7784C46.0984 49.7152 46.5474 49.6437 46.9 49.5613C47.2526 49.4816 47.6217 49.3606 48.0073 49.2012C49.0981 49.3936 49.9741 49.5695 50.6297 49.7289C51.288 49.8883 51.7453 50.0175 52.0015 50.1137C52.5469 50.4023 52.6433 51.0428 52.2907 52.035C51.9381 52.9311 51.3101 53.2829 50.4121 53.0905C49.6408 52.9311 48.9742 52.8596 48.415 52.8734C47.8531 52.8899 47.203 52.8816 46.4648 52.8486C45.9194 52.9146 45.3244 52.9861 44.6826 53.0658C44.0407 53.1455 43.4155 53.2169 42.8067 53.2829V66.0586C42.8067 69.0381 42.6221 71.3909 42.253 73.1198C41.8839 74.8487 41.3137 75.7145 40.5452 75.7145C40.1265 75.7145 39.807 75.4891 39.5811 75.0411C39.3552 74.5931 39.1955 74.0653 39.099 73.4551C39.0026 72.8449 38.9475 72.2293 38.931 71.6053C38.9145 70.9814 38.9062 70.4921 38.9062 70.1403V31.3818C38.9062 30.7414 39.066 30.1806 39.3883 29.6996C39.7078 29.2186 40.1899 28.9795 40.8317 28.9795C41.4735 28.9795 41.9638 29.2186 42.2999 29.6996C42.6359 30.1806 42.8039 30.7414 42.8039 31.3818V50.067H42.8095Z" fill="#4B7522"/>
<path d="M58.7791 55.0617C59.0023 53.7176 59.5091 52.4752 60.2941 51.3401C61.0792 50.2049 62.035 49.2016 63.1589 48.3386C64.2828 47.5057 65.5251 46.8488 66.8886 46.3705C68.2521 45.8895 69.6074 45.6504 70.9571 45.6504C72.3068 45.6504 73.5794 45.8675 74.8796 46.2991C76.1798 46.7306 77.3257 47.349 78.3201 48.1489C79.3145 48.9488 80.0775 49.9108 80.6064 51.0322C81.1352 52.1537 81.3033 53.4015 81.1104 54.7786C80.9507 55.9 80.5981 56.9253 80.0527 57.8516C79.5073 58.7806 78.8324 59.597 78.0308 60.3006C77.2293 61.0372 76.323 61.6529 75.3121 62.1504C74.3011 62.6479 73.2186 63.0245 72.0617 63.2801V69.0907L83.3251 68.2744C83.8705 68.2112 84.2727 68.148 84.5289 68.082C84.785 68.0188 85.1073 67.9061 85.493 67.7467C85.7822 67.8126 86.2229 67.8594 86.8179 67.8896C87.4101 67.9226 88.0134 67.9858 88.6222 68.082C89.2006 68.2112 89.7212 68.3871 90.1868 68.6097C90.6523 68.8351 90.8837 69.1705 90.8837 69.6185C90.8837 70.0363 90.7542 70.531 90.498 71.1082C90.4016 71.3336 90.2005 71.4931 89.8975 71.5893C89.5918 71.6855 89.264 71.7322 88.9114 71.7322C88.5588 71.7322 88.198 71.7157 87.8288 71.6855C87.4597 71.6552 87.1319 71.6057 86.8427 71.5425C86.2312 71.4161 85.6142 71.3666 84.9889 71.3968C84.3636 71.4298 83.697 71.4628 82.9918 71.4931C81.9644 71.4931 80.97 71.5095 80.0059 71.5425C79.0418 71.5755 77.9675 71.6222 76.7803 71.6855C75.56 71.7487 74.1634 71.8366 72.5933 71.9493C71.0205 72.062 69.1115 72.1967 66.8638 72.3561C65.7096 72.4523 64.6078 72.5403 63.5666 72.62C62.5226 72.6997 61.4896 72.7712 60.4622 72.8371C59.4347 72.9333 58.3742 73.0213 57.2862 73.101C56.1953 73.1807 55.055 73.2522 53.8677 73.3181C53.1295 73.2879 52.4629 73.3676 51.8707 73.5573C51.2757 73.7497 50.7551 73.8294 50.3061 73.7964C50.0499 73.7964 49.6808 73.7249 49.1987 73.5793C48.7167 73.4336 48.1713 73.2357 47.5625 72.9801C47.3036 72.8839 47.0474 72.7327 46.7912 72.5238C46.5351 72.3149 46.3257 72.084 46.166 71.8284C46.0062 71.6057 45.9401 71.3556 45.9731 71.0835C46.0062 70.8114 46.1825 70.531 46.502 70.2424C46.7251 70.05 47.0061 69.9456 47.3449 69.9291C47.681 69.9126 48.0418 69.9208 48.4275 69.9538C48.8131 70.0198 49.2042 70.0912 49.6064 70.171C50.0058 70.2507 50.3667 70.2919 50.689 70.2919C51.8762 70.2919 53.0799 70.2617 54.3002 70.1957C55.5205 70.1325 56.8179 70.0363 58.1979 69.9071C59.578 69.8109 61.0764 69.7064 62.6989 69.5937C64.3186 69.481 66.1559 69.3766 68.2108 69.2831V63.6155C66.9602 63.5825 65.7151 63.3846 64.4811 63.0163C63.2443 62.6479 62.1783 62.112 61.2803 61.4056C60.3492 60.7019 59.6441 59.8196 59.162 58.7641C58.68 57.7087 58.5505 56.4745 58.7764 55.0645L58.7791 55.0617ZM82.8486 86.7645C83.6199 86.8277 84.0909 87.0118 84.2699 87.3169C84.4462 87.622 84.5013 87.9491 84.438 88.301C84.3719 88.749 84.0936 89.142 83.5951 89.4774C83.0965 89.8127 82.4464 89.9804 81.6448 89.9804C81.0994 89.9804 80.4576 89.9969 79.7194 90.0298C78.9812 90.0601 78.0666 90.1096 76.9758 90.1728L63.4977 90.9891C62.181 91.0194 61.2197 90.9396 60.6082 90.75C59.9967 90.5576 59.4678 90.236 59.0188 89.788C58.5367 89.274 58.231 88.5318 58.1043 87.5533C57.9748 86.5776 57.9114 85.6733 57.9114 84.8404C57.8784 83.752 57.8564 82.647 57.8398 81.5256C57.8233 80.4041 57.7985 79.2992 57.7682 78.2107C57.7682 77.5703 57.928 77.0178 58.2503 76.5533C58.5698 76.0888 59.0518 75.8579 59.6937 75.8579C60.3355 75.8579 60.8093 76.0915 61.115 76.5533C61.4208 77.0178 61.5723 77.5703 61.5723 78.2107L61.7155 83.9279V85.2967C61.7155 85.7282 61.7789 86.1213 61.9083 86.4731C62.0047 86.8249 62.1976 87.1135 62.4868 87.3389C62.776 87.5616 63.225 87.6908 63.8338 87.7237C66.0484 87.6605 68.0538 87.5808 69.8498 87.4846C70.621 87.4516 71.3813 87.4214 72.1361 87.3884C72.8908 87.3554 73.5877 87.3224 74.2295 87.2922C74.8713 87.2592 75.4085 87.2262 75.8437 87.196C76.2762 87.163 76.5737 87.13 76.7334 87.0998C77.2788 87.0366 77.7994 86.9569 78.298 86.8607C78.7966 86.7645 79.2373 86.6215 79.623 86.4291C80.1353 86.5253 80.6587 86.5885 81.1876 86.6215C81.7164 86.6518 82.2701 86.7012 82.8486 86.7645ZM76.7362 54.9683C76.8629 54.0062 76.8078 53.1349 76.5682 52.3516C76.3285 51.5682 75.9484 50.8865 75.436 50.3093C74.8906 49.7651 74.2323 49.3473 73.4638 49.0614C72.6925 48.7728 71.8441 48.6299 70.913 48.6299C70.0453 48.6299 69.1887 48.7811 68.3375 49.0862C67.4863 49.3913 66.7095 49.8146 66.0044 50.3588C65.2661 50.936 64.6409 51.6149 64.1258 52.401C63.6107 53.1871 63.2746 54.0585 63.1148 55.0177C62.9854 55.7544 63.0432 56.4745 63.2829 57.1782C63.5225 57.8818 63.9164 58.492 64.4618 59.0033C65.0072 59.5475 65.6738 59.979 66.4589 60.3006C67.2439 60.6222 68.1034 60.7816 69.0344 60.7816C69.869 60.7816 70.7119 60.6387 71.5603 60.3501C72.4115 60.0615 73.2048 59.6629 73.943 59.1489C74.6482 58.6377 75.2597 58.0275 75.7721 57.3238C76.2844 56.6202 76.6067 55.8341 76.7362 54.971V54.9683Z" fill="#4B7522"/>
<path d="M67.8602 14.157C63.1802 16.3834 59.4312 19.4976 56.7345 23.7855C56.291 23.6123 56.3681 23.299 56.3791 23.0543C56.5003 20.2645 57.5388 17.9281 59.5634 15.9271C63.4584 12.079 68.2706 10.6635 73.5484 10.3447C74.248 10.3034 74.5207 10.713 74.1131 11.2902C72.7303 13.2417 72.0196 15.5176 70.9646 17.6258C70.1245 19.3025 69.1301 20.8637 67.7197 22.128C65.797 23.8514 63.5768 24.9756 61.0123 25.3824C60.0703 25.5309 59.1254 25.671 58.1669 25.6051C57.4562 25.5556 57.3543 25.4209 57.6903 24.83C58.5084 23.3924 59.4422 22.0401 60.6074 20.8499C61.2189 20.226 61.7313 19.5141 62.3345 18.8737C63.1499 18.0078 64.0424 17.2382 64.9486 16.4961C65.6428 15.9271 66.4168 15.4214 67.1688 14.9046C67.4112 14.737 67.7225 14.638 67.8629 14.1598L67.8602 14.157Z" fill="#4B7522"/>
<path d="M46.4126 12.0678C50.1781 13.8572 53.1943 16.3639 55.3622 19.8134C55.7175 19.6733 55.6569 19.4231 55.6487 19.2252C55.5495 16.9796 54.7176 15.1023 53.0897 13.4916C49.955 10.3966 46.0848 9.25869 41.84 9.00032C41.2781 8.96733 41.0577 9.29717 41.3855 9.75894C42.4983 11.3284 43.0685 13.159 43.9197 14.8549C44.5946 16.2045 45.3961 17.4606 46.5283 18.4749C48.0736 19.8602 49.8613 20.7672 51.9217 21.0916C52.6792 21.2098 53.4395 21.3224 54.2108 21.2702C54.7837 21.2317 54.8636 21.1218 54.5937 20.6463C53.9353 19.4919 53.1833 18.4034 52.2468 17.4441C51.7564 16.9411 51.3433 16.3694 50.8557 15.8527C50.2001 15.1573 49.4812 14.5361 48.754 13.9396C48.1948 13.4806 47.5723 13.0765 46.969 12.6615C46.7734 12.5268 46.5228 12.4471 46.4098 12.0623L46.4126 12.0678Z" fill="#907D30"/>
<path d="M99.204 82.5093C99.8761 82.9848 100.556 83.4301 101.248 83.8451C101.939 84.2602 102.705 84.4745 103.548 84.491C103.562 84.5378 103.567 84.5762 103.567 84.6065V84.6752C103.567 84.6917 103.564 84.7219 103.556 84.7687C103.551 84.8154 103.534 84.8539 103.507 84.8841C103.35 85.0847 103.165 85.2442 102.953 85.3679C102.744 85.4915 102.526 85.5685 102.303 85.5987C102.08 85.5218 101.87 85.3898 101.68 85.2057C101.49 85.0215 101.281 84.8594 101.058 84.7219L98.9451 82.993C98.4851 83.5455 98.0085 84.0348 97.5127 84.4581C97.0196 84.8813 96.5018 85.2524 95.9646 85.5768C95.8847 85.607 95.8076 85.6345 95.7277 85.6565C95.6479 85.6785 95.5762 85.6922 95.5101 85.6922C95.3531 85.6922 95.1989 85.6455 95.0474 85.5548C94.8959 85.4613 94.7664 85.3541 94.6617 85.2332C94.6342 85.1864 94.6011 85.1397 94.5626 85.0957C94.524 85.049 94.502 84.9968 94.502 84.9336V84.8401L94.6204 84.7714C95.4358 84.7412 96.1822 84.491 96.8599 84.021C97.5375 83.5538 98.1848 82.9793 98.8046 82.3031C98.8294 82.3031 98.868 82.3004 98.912 82.2921C98.9589 82.2839 98.9947 82.2811 99.0194 82.2811C99.0442 82.2811 99.0801 82.2894 99.1186 82.3031C99.1572 82.3196 99.1847 82.3581 99.1985 82.4186V82.512L99.204 82.5093ZM97.0527 80.5028V81.0113C97.0775 81.0278 97.1188 81.0333 97.1711 81.0333H97.7826C97.9011 81.0333 98.0168 81.0497 98.127 81.0827C98.2399 81.1157 98.3281 81.2009 98.3942 81.3329V81.5857C98.3942 81.6022 98.3887 81.627 98.3749 81.6599L98.295 81.7616L97.0912 81.7864C97.0775 81.8194 97.0692 81.8633 97.061 81.9183C97.0554 81.9733 97.0499 82.0228 97.0499 82.0695V82.3471C97.0499 82.4543 97.0362 82.556 97.0114 82.6467C96.9866 82.7402 96.915 82.8006 96.7965 82.8309C96.5431 82.8006 96.4164 82.6687 96.4164 82.4378V81.8606C96.2979 81.8606 96.1299 81.8826 95.9123 81.9293C95.6947 81.976 95.4798 82.0283 95.2705 82.0915C95.2181 82.075 95.163 82.0612 95.1024 82.0448C95.0446 82.0283 95.0005 81.976 94.973 81.8826C94.973 81.8496 94.9702 81.8084 94.962 81.7589C94.9565 81.7094 94.9509 81.6572 94.9509 81.6077C94.9509 81.5418 94.9565 81.4785 94.9702 81.4181C94.984 81.3603 95.0033 81.3136 95.0308 81.2806C95.0556 81.1982 95.0997 81.1377 95.1603 81.1047C95.2181 81.0717 95.276 81.047 95.3283 81.0305H96.1685C96.2676 81.0305 96.3503 81.0223 96.4164 81.0085C96.4164 80.9013 96.4026 80.7886 96.3778 80.6732C96.353 80.5577 96.3393 80.4478 96.3393 80.3379C96.3393 80.3214 96.342 80.2911 96.3503 80.2444C96.3558 80.1977 96.3668 80.1674 96.3806 80.1509C96.4081 80.074 96.4522 80.008 96.5155 79.9558C96.5789 79.9008 96.6478 79.8761 96.7166 79.8761C96.7855 79.8761 96.8516 79.9036 96.9094 79.9558C96.9673 80.0108 97.0141 80.0822 97.0499 80.1757V80.4973L97.0527 80.5028ZM97.3474 87.2562C97.3474 87.3634 97.3254 87.4761 97.2786 87.5915C97.2317 87.7069 97.1766 87.8196 97.1105 87.9268C96.9783 88.111 96.8406 88.3419 96.6973 88.6195C96.5514 88.8971 96.3751 89.0345 96.1657 89.0345C96.1519 89.0345 96.1299 89.0263 96.0969 89.0125C96.0638 88.9961 96.0335 88.9906 96.0087 88.9906C95.8517 88.8971 95.7415 88.7404 95.6837 88.5178C95.6258 88.2951 95.5955 88.0835 95.5955 87.8829V87.7894L95.6341 87.6959C95.7002 87.6959 95.7635 87.6987 95.8214 87.7069C95.882 87.7152 95.9371 87.7179 95.9894 87.7179C96.2125 87.7179 96.4302 87.6602 96.6395 87.5448C96.8489 87.4293 97.0417 87.2809 97.2125 87.0967H97.2317C97.2565 87.0967 97.2841 87.105 97.3116 87.1187C97.3364 87.1352 97.3502 87.1572 97.3502 87.1874V87.2562H97.3474ZM99.3335 84.5817C99.339 84.6752 99.3445 84.7577 99.3445 84.8346V85.2964H101.179C101.204 85.3294 101.22 85.3706 101.229 85.4173C101.234 85.4668 101.24 85.508 101.24 85.5383C101.24 85.5877 101.237 85.6317 101.229 85.673C101.223 85.7142 101.212 85.7499 101.198 85.7829C101.132 85.9286 101.061 86.022 100.981 86.0633C100.901 86.1045 100.815 86.1237 100.725 86.1237H99.3417V86.9318C99.3417 87.1765 99.3555 87.4431 99.3803 87.7262C99.4078 88.0093 99.4271 88.2842 99.4409 88.5453C99.4023 88.7459 99.3775 88.9713 99.372 89.2242C99.3665 89.4771 99.2674 89.6365 99.0745 89.697H99.0553C98.9919 89.697 98.9368 89.675 98.8927 89.6282C98.8487 89.5815 98.8129 89.5128 98.7881 89.4221C98.7633 89.2984 98.744 89.1747 98.7302 89.0538C98.7164 88.9301 98.7109 88.8009 98.7109 88.6607V86.1265H98.1187C97.9342 86.1265 97.7468 86.143 97.5568 86.1732C97.3667 86.2034 97.1904 86.2502 97.0334 86.3106C96.9811 86.2941 96.9177 86.2804 96.8461 86.2639C96.7745 86.2474 96.7249 86.1924 96.6973 86.099L96.6781 86.044C96.6781 85.9148 96.6891 85.7994 96.7084 85.6977C96.7276 85.596 96.7827 85.508 96.8764 85.4338C96.9012 85.3596 96.9398 85.3184 96.9838 85.3101C97.0307 85.3019 97.0802 85.2964 97.1326 85.2964H98.7109V84.7192C98.7109 84.6257 98.7275 84.5323 98.7578 84.4306C98.7908 84.3316 98.8376 84.2492 98.901 84.1887C98.9781 84.1887 99.0553 84.1969 99.1296 84.2107C99.2068 84.2272 99.2563 84.2711 99.2839 84.3481C99.3087 84.4086 99.3252 84.4855 99.3307 84.579L99.3335 84.5817ZM101.443 80.1564C101.449 80.1867 101.454 80.2169 101.454 80.2499C101.454 80.3571 101.441 80.4533 101.416 80.5385C101.388 80.6237 101.377 80.7199 101.377 80.8271C101.443 80.8436 101.51 80.8546 101.576 80.8628C101.642 80.8711 101.708 80.8738 101.774 80.8738H102.879C102.903 80.9178 102.92 80.959 102.928 80.9975C102.934 81.036 102.939 81.0772 102.939 81.1212C102.939 81.1652 102.936 81.2119 102.928 81.2559C102.923 81.2999 102.912 81.3384 102.898 81.3686C102.846 81.5033 102.777 81.594 102.691 81.638C102.606 81.6819 102.523 81.7039 102.443 81.7039H101.215C101.151 81.7039 101.121 81.7589 101.121 81.8661V82.0035C101.094 82.097 101.069 82.2042 101.047 82.3251C101.025 82.4488 100.959 82.5258 100.846 82.556C100.832 82.556 100.81 82.5642 100.782 82.578C100.769 82.578 100.744 82.5697 100.708 82.556C100.672 82.5395 100.634 82.534 100.592 82.534C100.565 82.5038 100.54 82.4543 100.518 82.3856C100.496 82.3169 100.488 82.2509 100.488 82.1904V81.7067H100.306C100.185 81.7067 100.052 81.7177 99.9119 81.7424C99.7715 81.7644 99.6337 81.7919 99.4988 81.8221C99.4492 81.8056 99.3968 81.7946 99.3417 81.7864C99.2866 81.7781 99.2398 81.7287 99.204 81.6352V81.517C99.204 81.4236 99.2178 81.3329 99.2426 81.2449C99.2674 81.1569 99.3142 81.0827 99.3803 81.0195C99.4078 80.9563 99.4437 80.9178 99.4877 80.9013C99.5346 80.8848 99.5841 80.8766 99.6365 80.8766H100.623C100.689 80.7062 100.711 80.5028 100.691 80.2664C100.672 80.0273 100.755 79.8788 100.939 79.8184H101.058C101.138 79.8184 101.212 79.8294 101.284 79.8541C101.355 79.8761 101.405 79.942 101.432 80.0492C101.432 80.096 101.435 80.1345 101.443 80.1647V80.1564ZM101.474 87.4651C101.724 87.619 101.994 87.6959 102.284 87.6959H102.421C102.449 87.7262 102.463 87.7619 102.471 87.8004C102.476 87.8389 102.482 87.8801 102.482 87.9268V88.0313C102.482 88.0698 102.468 88.111 102.443 88.1577C102.339 88.4023 102.187 88.5755 101.989 88.6772C101.791 88.7762 101.6 88.8641 101.416 88.9411L101.259 88.8256C101.113 88.5645 100.983 88.3034 100.865 88.0423C100.747 87.7812 100.628 87.52 100.51 87.2589C100.496 87.2424 100.49 87.2232 100.49 87.2012V87.1435C100.49 87.083 100.504 87.028 100.529 86.9813C100.557 86.9346 100.595 86.9126 100.647 86.9126C100.672 86.9126 100.7 86.9291 100.727 86.9593C100.978 87.1435 101.226 87.3139 101.477 87.4651H101.474Z" fill="#907D30"/>
<path d="M103.192 90.9996H94.8458C94.0415 90.9996 93.3887 90.2904 93.3887 89.4219V79.8209C93.3887 78.9496 94.0415 78.2432 94.8458 78.2432H103.192C103.997 78.2432 104.649 78.9523 104.649 79.8209V89.4219C104.649 90.2932 103.997 90.9996 103.192 90.9996ZM94.8458 78.7654C94.3087 78.7654 93.8735 79.2382 93.8735 79.8181V89.4191C93.8735 89.9991 94.3087 90.4718 94.8458 90.4718H103.192C103.729 90.4718 104.165 89.9991 104.165 89.4191V79.8181C104.165 79.2382 103.729 78.7654 103.192 78.7654H94.8458Z" fill="#907D30"/>
</g>
<defs>
<clipPath id="clip0_370_1255">
<rect width="94.3" height="82" fill="white" transform="translate(10.3496 9)"/>
</clipPath>
</defs>
</svg>
