<svg width="24" height="24" viewBox="0 0 24 24" fill="none" xmlns="http://www.w3.org/2000/svg">
<path d="M15 12L10.5 9V15L15 12Z" stroke="#4B7522" stroke-width="2" stroke-linecap="round" stroke-linejoin="round"/>
<path d="M2 12.4626C2 15.2563 2.29062 16.8876 2.50625 17.7313C2.56571 17.9602 2.67813 18.172 2.83447 18.3495C2.9908 18.527 3.18666 18.6653 3.40625 18.7532C6.54688 19.9532 11.75 19.9251 11.75 19.9251C11.75 19.9251 16.9531 19.9532 20.0938 18.7532C20.3133 18.6653 20.5092 18.527 20.6655 18.3495C20.8219 18.172 20.9343 17.9602 20.9938 17.7313C21.2094 16.8876 21.5 15.2563 21.5 12.4626C21.5 9.66881 21.2094 8.03756 20.9938 7.19381C20.9343 6.96487 20.8219 6.75311 20.6655 6.57561C20.5092 6.39811 20.3133 6.25983 20.0938 6.17193C16.9531 4.97193 11.75 5.00006 11.75 5.00006C11.75 5.00006 6.54688 4.97193 3.40625 6.17193C3.18666 6.25983 2.9908 6.39811 2.83447 6.57561C2.67813 6.75311 2.56571 6.96487 2.50625 7.19381C2.29062 8.03756 2 9.66881 2 12.4626Z" stroke="#4B7522" stroke-width="2" stroke-linecap="round" stroke-linejoin="round"/>
</svg>
